<mxfile host="app.diagrams.net" modified="2023-04-08T10:12:45.954Z" agent="Mozilla/5.0 (Windows NT 10.0; Win64; x64) AppleWebKit/537.36 (KHTML, like Gecko) Chrome/112.0.0.0 Safari/537.36 Edg/112.0.1722.34" etag="mkLsgTyrloaGmlgUVGaQ" version="21.1.5" type="device">
  <diagram name="Page-1" id="BcfdxhZQwvCEtoD3ciX1">
    <mxGraphModel dx="574" dy="334" grid="1" gridSize="10" guides="1" tooltips="1" connect="1" arrows="1" fold="1" page="1" pageScale="1" pageWidth="850" pageHeight="1100" math="0" shadow="0">
      <root>
        <mxCell id="0" />
        <mxCell id="1" parent="0" />
        <mxCell id="8UYx5dtjaOQDZjI-8n0h-1" value="" style="rounded=0;whiteSpace=wrap;html=1;" vertex="1" parent="1">
          <mxGeometry x="150" y="60" width="580" height="500" as="geometry" />
        </mxCell>
        <mxCell id="8UYx5dtjaOQDZjI-8n0h-2" value="&lt;font style=&quot;font-size: 8px;&quot;&gt;Funix Use Case Diagram&lt;/font&gt;" style="rounded=0;whiteSpace=wrap;html=1;align=center;" vertex="1" parent="1">
          <mxGeometry x="150" y="60" width="100" height="20" as="geometry" />
        </mxCell>
        <mxCell id="8UYx5dtjaOQDZjI-8n0h-3" value="Client" style="shape=umlActor;verticalLabelPosition=bottom;verticalAlign=top;html=1;outlineConnect=0;" vertex="1" parent="1">
          <mxGeometry x="210" y="160" width="30" height="60" as="geometry" />
        </mxCell>
        <mxCell id="8UYx5dtjaOQDZjI-8n0h-4" value="" style="rounded=0;whiteSpace=wrap;html=1;dashed=1;dashPattern=1 2;" vertex="1" parent="1">
          <mxGeometry x="290" y="90" width="270" height="420" as="geometry" />
        </mxCell>
        <mxCell id="8UYx5dtjaOQDZjI-8n0h-19" style="rounded=0;orthogonalLoop=1;jettySize=auto;html=1;entryX=0;entryY=0.5;entryDx=0;entryDy=0;endArrow=none;endFill=0;" edge="1" parent="1" source="8UYx5dtjaOQDZjI-8n0h-3" target="8UYx5dtjaOQDZjI-8n0h-9">
          <mxGeometry relative="1" as="geometry" />
        </mxCell>
        <mxCell id="8UYx5dtjaOQDZjI-8n0h-20" style="rounded=0;orthogonalLoop=1;jettySize=auto;html=1;entryX=0;entryY=0.5;entryDx=0;entryDy=0;endArrow=none;endFill=0;" edge="1" parent="1" source="8UYx5dtjaOQDZjI-8n0h-3" target="8UYx5dtjaOQDZjI-8n0h-10">
          <mxGeometry relative="1" as="geometry" />
        </mxCell>
        <mxCell id="8UYx5dtjaOQDZjI-8n0h-18" style="rounded=0;orthogonalLoop=1;jettySize=auto;html=1;entryX=0;entryY=0.5;entryDx=0;entryDy=0;endArrow=none;endFill=0;" edge="1" parent="1" source="8UYx5dtjaOQDZjI-8n0h-3" target="8UYx5dtjaOQDZjI-8n0h-8">
          <mxGeometry relative="1" as="geometry" />
        </mxCell>
        <mxCell id="8UYx5dtjaOQDZjI-8n0h-16" style="rounded=1;orthogonalLoop=1;jettySize=auto;html=1;strokeColor=default;jumpStyle=line;endArrow=none;endFill=0;" edge="1" parent="1" source="8UYx5dtjaOQDZjI-8n0h-3" target="8UYx5dtjaOQDZjI-8n0h-5">
          <mxGeometry relative="1" as="geometry" />
        </mxCell>
        <mxCell id="8UYx5dtjaOQDZjI-8n0h-22" style="rounded=0;orthogonalLoop=1;jettySize=auto;html=1;entryX=-0.004;entryY=0.546;entryDx=0;entryDy=0;entryPerimeter=0;endArrow=none;endFill=0;" edge="1" parent="1" source="8UYx5dtjaOQDZjI-8n0h-5" target="8UYx5dtjaOQDZjI-8n0h-12">
          <mxGeometry relative="1" as="geometry" />
        </mxCell>
        <mxCell id="8UYx5dtjaOQDZjI-8n0h-5" value="&lt;font style=&quot;font-size: 10px;&quot;&gt;Buy token&lt;/font&gt;" style="ellipse;whiteSpace=wrap;html=1;" vertex="1" parent="1">
          <mxGeometry x="390" y="130" width="70" height="40" as="geometry" />
        </mxCell>
        <mxCell id="8UYx5dtjaOQDZjI-8n0h-23" style="rounded=0;orthogonalLoop=1;jettySize=auto;html=1;entryX=0;entryY=0.549;entryDx=0;entryDy=0;entryPerimeter=0;endArrow=none;endFill=0;" edge="1" parent="1" source="8UYx5dtjaOQDZjI-8n0h-7" target="8UYx5dtjaOQDZjI-8n0h-12">
          <mxGeometry relative="1" as="geometry" />
        </mxCell>
        <mxCell id="8UYx5dtjaOQDZjI-8n0h-7" value="&lt;font style=&quot;font-size: 10px;&quot;&gt;Trade token&lt;/font&gt;" style="ellipse;whiteSpace=wrap;html=1;" vertex="1" parent="1">
          <mxGeometry x="390" y="180" width="70" height="40" as="geometry" />
        </mxCell>
        <mxCell id="8UYx5dtjaOQDZjI-8n0h-24" style="rounded=0;orthogonalLoop=1;jettySize=auto;html=1;entryX=-0.004;entryY=0.546;entryDx=0;entryDy=0;entryPerimeter=0;endArrow=none;endFill=0;" edge="1" parent="1" source="8UYx5dtjaOQDZjI-8n0h-8" target="8UYx5dtjaOQDZjI-8n0h-12">
          <mxGeometry relative="1" as="geometry">
            <mxPoint x="599.9999999999998" y="310" as="targetPoint" />
          </mxGeometry>
        </mxCell>
        <mxCell id="8UYx5dtjaOQDZjI-8n0h-8" value="&lt;font style=&quot;font-size: 10px;&quot;&gt;Transfer token&lt;/font&gt;" style="ellipse;whiteSpace=wrap;html=1;" vertex="1" parent="1">
          <mxGeometry x="390" y="230" width="70" height="40" as="geometry" />
        </mxCell>
        <mxCell id="8UYx5dtjaOQDZjI-8n0h-25" style="rounded=0;orthogonalLoop=1;jettySize=auto;html=1;entryX=-0.003;entryY=0.544;entryDx=0;entryDy=0;entryPerimeter=0;endArrow=none;endFill=0;" edge="1" parent="1" source="8UYx5dtjaOQDZjI-8n0h-9" target="8UYx5dtjaOQDZjI-8n0h-12">
          <mxGeometry relative="1" as="geometry" />
        </mxCell>
        <mxCell id="8UYx5dtjaOQDZjI-8n0h-9" value="&lt;font style=&quot;font-size: 10px;&quot;&gt;Check Token Balance&lt;/font&gt;" style="ellipse;whiteSpace=wrap;html=1;" vertex="1" parent="1">
          <mxGeometry x="390" y="280" width="70" height="40" as="geometry" />
        </mxCell>
        <mxCell id="8UYx5dtjaOQDZjI-8n0h-26" style="rounded=0;orthogonalLoop=1;jettySize=auto;html=1;entryX=-0.001;entryY=0.543;entryDx=0;entryDy=0;entryPerimeter=0;endArrow=none;endFill=0;" edge="1" parent="1" source="8UYx5dtjaOQDZjI-8n0h-10" target="8UYx5dtjaOQDZjI-8n0h-12">
          <mxGeometry relative="1" as="geometry" />
        </mxCell>
        <mxCell id="8UYx5dtjaOQDZjI-8n0h-10" value="&lt;font style=&quot;font-size: 10px;&quot;&gt;Check Token Rate&lt;/font&gt;" style="ellipse;whiteSpace=wrap;html=1;" vertex="1" parent="1">
          <mxGeometry x="390" y="330" width="70" height="40" as="geometry" />
        </mxCell>
        <mxCell id="8UYx5dtjaOQDZjI-8n0h-27" style="rounded=0;orthogonalLoop=1;jettySize=auto;html=1;endArrow=none;endFill=0;" edge="1" parent="1" source="8UYx5dtjaOQDZjI-8n0h-11">
          <mxGeometry relative="1" as="geometry">
            <mxPoint x="391" y="395" as="targetPoint" />
          </mxGeometry>
        </mxCell>
        <mxCell id="8UYx5dtjaOQDZjI-8n0h-44" style="rounded=0;orthogonalLoop=1;jettySize=auto;html=1;entryX=0;entryY=0.5;entryDx=0;entryDy=0;endArrow=none;endFill=0;" edge="1" parent="1" source="8UYx5dtjaOQDZjI-8n0h-11" target="8UYx5dtjaOQDZjI-8n0h-15">
          <mxGeometry relative="1" as="geometry" />
        </mxCell>
        <mxCell id="8UYx5dtjaOQDZjI-8n0h-45" style="rounded=0;orthogonalLoop=1;jettySize=auto;html=1;entryX=0;entryY=0.5;entryDx=0;entryDy=0;endArrow=none;endFill=0;" edge="1" parent="1" source="8UYx5dtjaOQDZjI-8n0h-11" target="8UYx5dtjaOQDZjI-8n0h-10">
          <mxGeometry relative="1" as="geometry" />
        </mxCell>
        <mxCell id="8UYx5dtjaOQDZjI-8n0h-46" style="rounded=0;orthogonalLoop=1;jettySize=auto;html=1;entryX=0;entryY=0.5;entryDx=0;entryDy=0;endArrow=none;endFill=0;" edge="1" parent="1" source="8UYx5dtjaOQDZjI-8n0h-11" target="8UYx5dtjaOQDZjI-8n0h-9">
          <mxGeometry relative="1" as="geometry" />
        </mxCell>
        <mxCell id="8UYx5dtjaOQDZjI-8n0h-11" value="Token Owner" style="shape=umlActor;verticalLabelPosition=bottom;verticalAlign=top;html=1;outlineConnect=0;" vertex="1" parent="1">
          <mxGeometry x="210" y="340" width="30" height="60" as="geometry" />
        </mxCell>
        <mxCell id="8UYx5dtjaOQDZjI-8n0h-12" value="Reserve" style="ellipse;whiteSpace=wrap;html=1;" vertex="1" parent="1">
          <mxGeometry x="600" y="280" width="90" height="60" as="geometry" />
        </mxCell>
        <mxCell id="8UYx5dtjaOQDZjI-8n0h-43" style="rounded=0;orthogonalLoop=1;jettySize=auto;html=1;entryX=-0.002;entryY=0.543;entryDx=0;entryDy=0;endArrow=none;endFill=0;entryPerimeter=0;" edge="1" parent="1" source="8UYx5dtjaOQDZjI-8n0h-14" target="8UYx5dtjaOQDZjI-8n0h-12">
          <mxGeometry relative="1" as="geometry" />
        </mxCell>
        <mxCell id="8UYx5dtjaOQDZjI-8n0h-14" value="&lt;font style=&quot;font-size: 10px;&quot;&gt;Set Exchange Rate&lt;/font&gt;" style="ellipse;whiteSpace=wrap;html=1;" vertex="1" parent="1">
          <mxGeometry x="390" y="380" width="70" height="40" as="geometry" />
        </mxCell>
        <mxCell id="8UYx5dtjaOQDZjI-8n0h-47" style="rounded=0;orthogonalLoop=1;jettySize=auto;html=1;entryX=0.001;entryY=0.549;entryDx=0;entryDy=0;entryPerimeter=0;endArrow=none;endFill=0;" edge="1" parent="1" source="8UYx5dtjaOQDZjI-8n0h-15" target="8UYx5dtjaOQDZjI-8n0h-12">
          <mxGeometry relative="1" as="geometry" />
        </mxCell>
        <mxCell id="8UYx5dtjaOQDZjI-8n0h-15" value="&lt;font style=&quot;font-size: 10px;&quot;&gt;With Draw&amp;nbsp;&lt;/font&gt;" style="ellipse;whiteSpace=wrap;html=1;" vertex="1" parent="1">
          <mxGeometry x="390" y="430" width="70" height="40" as="geometry" />
        </mxCell>
        <mxCell id="8UYx5dtjaOQDZjI-8n0h-17" style="rounded=1;orthogonalLoop=1;jettySize=auto;html=1;strokeColor=default;jumpStyle=line;entryX=0;entryY=0.5;entryDx=0;entryDy=0;endArrow=none;endFill=0;" edge="1" parent="1" target="8UYx5dtjaOQDZjI-8n0h-7">
          <mxGeometry relative="1" as="geometry">
            <mxPoint x="240" y="190" as="sourcePoint" />
            <mxPoint x="402" y="167" as="targetPoint" />
          </mxGeometry>
        </mxCell>
        <mxCell id="8UYx5dtjaOQDZjI-8n0h-48" value="System" style="text;html=1;strokeColor=none;fillColor=none;align=center;verticalAlign=middle;whiteSpace=wrap;rounded=0;" vertex="1" parent="1">
          <mxGeometry x="395" y="90" width="60" height="30" as="geometry" />
        </mxCell>
      </root>
    </mxGraphModel>
  </diagram>
</mxfile>
